<svg xmlns="http://www.w3.org/2000/svg" width="364.03" height="75.066">
    <defs>
        <clipPath id="a">
            <path fill="currentColor"
                d="M143.271-125.866v2.26h-5.9v12.673h-3.146v-12.673h-5.888v-2.26Zm19.439 0v2.26h-10.53v4.041h9.426v2.257h-9.426v4.114h10.866v2.26h-14.125v-14.932Zm116.1 0v12.65h8.131v2.283h-11.3v-14.932Zm-77.832 0v2.26h-5.9v12.673h-3.143v-12.673h-5.888v-2.26Zm100.585 0 8.382 14.932H306.5l-1.834-3.376h-9.684l-1.832 3.376h-3.374l8.476-14.932Zm42.241 0a15.312 15.312 0 0 1 3.563.411 13.348 13.348 0 0 1 3.089 1.111l-1.325 2.189a14.449 14.449 0 0 0-2.936-1.037 11.663 11.663 0 0 0-2.629-.341 5.223 5.223 0 0 0-2.266.4 1.244 1.244 0 0 0-.821 1.141 1.363 1.363 0 0 0 .536 1.091 4.124 4.124 0 0 0 1.35.709q.815.268 2.286.6a29.561 29.561 0 0 1 3.133.874 5.479 5.479 0 0 1 2.067 1.285 3.009 3.009 0 0 1 .855 2.223 3.191 3.191 0 0 1-.916 2.256 5.854 5.854 0 0 1-2.536 1.5 12.067 12.067 0 0 1-3.718.526 14.125 14.125 0 0 1-4.205-.632 12.758 12.758 0 0 1-3.558-1.7l1.392-2.148a11.632 11.632 0 0 0 3.16 1.588 10.463 10.463 0 0 0 3.264.56 5.916 5.916 0 0 0 2.617-.472 1.453 1.453 0 0 0 .934-1.317 1.368 1.368 0 0 0-.557-1.12 4.14 4.14 0 0 0-1.383-.7q-.829-.251-2.286-.59a28.432 28.432 0 0 1-3.133-.865 5.626 5.626 0 0 1-2.041-1.24 2.881 2.881 0 0 1-.853-2.184 3.092 3.092 0 0 1 .867-2.175 5.589 5.589 0 0 1 2.432-1.434 11.767 11.767 0 0 1 3.623-.509Zm-122.305 0 10.215 10.736v-10.736h3.166v14.932h-3.166l-10.162-10.7v10.7h-3.219v-14.932Zm29.538 0a13.948 13.948 0 0 1 3.921.561 11.89 11.89 0 0 1 3.329 1.509l-1.816 1.832a8.692 8.692 0 0 0-2.532-1.246 9.784 9.784 0 0 0-2.9-.441 8.484 8.484 0 0 0-3.46.694 6.248 6.248 0 0 0-2.5 1.9 4.254 4.254 0 0 0-.921 2.637 4.276 4.276 0 0 0 .921 2.655 6.24 6.24 0 0 0 2.507 1.9 8.561 8.561 0 0 0 3.48.7 9.715 9.715 0 0 0 2.183-.262 10.482 10.482 0 0 0 2.144-.749v-4.124h2.776v5.449a13.491 13.491 0 0 1-3.435 1.389 15.073 15.073 0 0 1-3.894.527 12.463 12.463 0 0 1-5.026-.991 8.74 8.74 0 0 1-3.579-2.707 6.134 6.134 0 0 1-1.3-3.789 5.983 5.983 0 0 1 1.329-3.786 8.972 8.972 0 0 1 3.65-2.676 13 13 0 0 1 5.128-.982Zm72.175 0a8.8 8.8 0 0 1 4.531.995 3.063 3.063 0 0 1 1.66 2.745 2.95 2.95 0 0 1-.869 2.145 4.4 4.4 0 0 1-2.375 1.176 5.177 5.177 0 0 1 2.9 1.26 3.316 3.316 0 0 1 1.063 2.52 3.356 3.356 0 0 1-1.795 3 9.5 9.5 0 0 1-4.938 1.089h-8.2v-14.932Zm-147.7 0a15.337 15.337 0 0 1 3.566.411 13.371 13.371 0 0 1 3.087 1.111l-1.325 2.189a14.453 14.453 0 0 0-2.937-1.037 11.666 11.666 0 0 0-2.629-.341 5.232 5.232 0 0 0-2.266.4 1.244 1.244 0 0 0-.821 1.141 1.363 1.363 0 0 0 .536 1.091 4.125 4.125 0 0 0 1.35.709q.815.268 2.287.6a29.568 29.568 0 0 1 3.133.874 5.48 5.48 0 0 1 2.067 1.285 3.009 3.009 0 0 1 .856 2.223 3.191 3.191 0 0 1-.916 2.256 5.856 5.856 0 0 1-2.537 1.5 12.066 12.066 0 0 1-3.716.526 14.134 14.134 0 0 1-4.208-.632 12.714 12.714 0 0 1-3.556-1.7l1.39-2.148a11.668 11.668 0 0 0 3.161 1.588 10.491 10.491 0 0 0 3.267.56 5.906 5.906 0 0 0 2.615-.472 1.453 1.453 0 0 0 .934-1.317 1.372 1.372 0 0 0-.555-1.12 4.176 4.176 0 0 0-1.385-.7q-.829-.251-2.287-.59a28.59 28.59 0 0 1-3.133-.865 5.628 5.628 0 0 1-2.042-1.24 2.881 2.881 0 0 1-.853-2.184 3.092 3.092 0 0 1 .867-2.175 5.589 5.589 0 0 1 2.433-1.434 11.78 11.78 0 0 1 3.619-.509Zm34.752 0v14.932h-2.825v-14.932Zm112.8 8.4h-4.751v4.291h4.751a5.913 5.913 0 0 0 2.858-.567 1.764 1.764 0 0 0 1.018-1.608 1.718 1.718 0 0 0-1.031-1.546 5.913 5.913 0 0 0-2.844-.569Zm-23.247-5.718-3.632 6.635h7.247Zm23.247-.446h-4.751v3.948h4.751a4.3 4.3 0 0 0 2.316-.533 1.648 1.648 0 0 0 .838-1.468 1.594 1.594 0 0 0-.831-1.441 4.481 4.481 0 0 0-2.323-.505ZM83.4-186a10.244 10.244 0 0 1 10.236 10.231 10.243 10.243 0 0 1-10.236 10.23 10.166 10.166 0 0 1-3.139-.5l-.211-.071-1.079 1.46a18.281 18.281 0 0 1 6.283 6.225 18.675 18.675 0 0 1 2.671 9.893 18.9 18.9 0 0 1-2.671 9.969 18.788 18.788 0 0 1-7.422 6.946 22.4 22.4 0 0 1-10.68 2.517 22.564 22.564 0 0 1-10.672-2.5 18.447 18.447 0 0 1-7.409-6.944 19.1 19.1 0 0 1-2.659-10 18.687 18.687 0 0 1 2.659-9.918 18.442 18.442 0 0 1 7.409-6.84 22.768 22.768 0 0 1 10.672-2.472 23.947 23.947 0 0 1 7.349 1.1l.3.1 1.419-1.921a10.193 10.193 0 0 1-3.057-7.281A10.244 10.244 0 0 1 83.4-186ZM211-167.87v22.049a6.109 6.109 0 0 0 1.706 4.461 5.577 5.577 0 0 0 4.138 1.745 5.093 5.093 0 0 0 3.928-1.692 6.345 6.345 0 0 0 1.547-4.328v-22.235h12.564v22.049a17.094 17.094 0 0 1-2.222 8.8 14.921 14.921 0 0 1-6.307 5.858 20.936 20.936 0 0 1-9.564 2.066 21.423 21.423 0 0 1-9.64-2.066 15.161 15.161 0 0 1-6.441-5.858 16.68 16.68 0 0 1-2.271-8.517v-22.332Zm-30.6-.373a21.807 21.807 0 0 1 8.728 1.9 21.3 21.3 0 0 1 7.106 4.863l.2.21-7.249 8.683a13.073 13.073 0 0 0-4.032-3.743 9.024 9.024 0 0 0-4.59-1.4 7.253 7.253 0 0 0-5.634 2.463 9 9 0 0 0-2.222 6.272 10.012 10.012 0 0 0 1.006 4.526 7.707 7.707 0 0 0 2.816 3.169 7.41 7.41 0 0 0 4.034 1.146 9.942 9.942 0 0 0 4.417-1.173 14.238 14.238 0 0 0 4.009-2.984l.2-.211 7.249 7.8a23.867 23.867 0 0 1-7.671 5.553 20.953 20.953 0 0 1-8.835 2.063 20.863 20.863 0 0 1-10.328-2.556 18.551 18.551 0 0 1-7.182-7.057 19.9 19.9 0 0 1-2.592-10.119 19.072 19.072 0 0 1 2.645-9.987 18.524 18.524 0 0 1 7.339-6.924 22.163 22.163 0 0 1 10.586-2.493Zm-167.229.4 8.229 20.028 8.209-20.024H42.78v38.34H31.921v-20.986l-6.454 17.275H17.31l-6.454-17.275v20.985H0v-38.34Zm91.953 0v27.794h15.955v10.549H92.42v-38.34Zm50.6 0v9.637h-19.361v4.7h17.57v9.61h-17.57v4.78h19.823v9.612H123.9v-38.34Zm96.307 0v27.794h15.955v10.549h-28.662v-38.34Zm45.414 0 15.743 38.34h-13.64l-1.94-5.421H283.1l-2 5.424h-13.122l16.333-38.34Zm35.283 0q7.724 0 11.933 3.592t4.206 10.131a16.022 16.022 0 0 1-1.544 7.25 12.025 12.025 0 0 1-4.443 4.9l7.437 12.468h-14.144l-4.535-9.959h-4.694v9.959H314.39v-38.34ZM67.31-157.374a7.454 7.454 0 0 0-4.014 1.157 8.426 8.426 0 0 0-2.96 3.184 9.335 9.335 0 0 0-1.1 4.549 9.5 9.5 0 0 0 1.1 4.579 8.592 8.592 0 0 0 2.96 3.234 7.327 7.327 0 0 0 4.014 1.184 6.945 6.945 0 0 0 3.936-1.184 8.218 8.218 0 0 0 2.8-3.234 10.092 10.092 0 0 0 1.027-4.579 9.918 9.918 0 0 0-1.027-4.549 8.051 8.051 0 0 0-2.8-3.184 7.063 7.063 0 0 0-3.936-1.157Zm223.172 2.164L286.414-144h8.06Zm42.238-2.99h-5.776v9.13h5.776a4 4 0 0 0 3.15-1.228 4.956 4.956 0 0 0 1.1-3.417 4.637 4.637 0 0 0-1.109-3.31 4.1 4.1 0 0 0-3.136-1.174Zm24.863-12.868a6.417 6.417 0 0 1 6.448 6.438 6.482 6.482 0 0 1-6.486 6.476 6.413 6.413 0 0 1-6.429-6.438 6.466 6.466 0 0 1 6.467-6.476Zm0 1.9a4.557 4.557 0 0 0-4.559 4.577 4.5 4.5 0 0 0 4.521 4.539 4.561 4.561 0 0 0 4.578-4.577 4.521 4.521 0 0 0-4.54-4.539Zm.21 1.462c1.564 0 2.461.741 2.461 2.032a2 2 0 0 1-.916 1.823l1.145 1.861h-2.156l-.687-1.481h-.63v1.481h-1.91v-5.717Zm0 1.424h-.782v1.367h.782a.6.6 0 0 0 .649-.684.6.6 0 0 0-.649-.684ZM83.4-181.51a5.749 5.749 0 0 0-5.744 5.741 5.749 5.749 0 0 0 5.744 5.741 5.749 5.749 0 0 0 5.744-5.741 5.749 5.749 0 0 0-5.744-5.741Z"
                clip-rule="evenodd" transform="translate(0 186)" />
        </clipPath>
    </defs>
    <g clip-path="url(#a)">
        <path fill="currentColor" d="M-.404-.404h364.837v75.873H-.404Z" />
    </g>
</svg>