<svg xmlns="http://www.w3.org/2000/svg" width="128" height="36" fill="none" viewBox="0 0 143 40">
    <path fill="currentColor" fill-rule="evenodd"
        d="M37.204 35.305c-3.06-4.624-4.602-10.134-4.435-15.81.156-5.305 1.797-10.514 4.702-15.047.322-.502.658-.995 1.01-1.48h.001l.006-.008.174-.237 1.157-1.56c.497-.669-.344-1.51-1.012-1.013l-1.558 1.158-.229.17-.016.011c-.484.353-.977.69-1.479 1.012C31 5.406 25.798 7.047 20.501 7.202 14.835 7.37 9.333 5.826 4.716 2.764a26.277 26.277 0 0 1-.77-.53L1.52.497C.856.02.035.84.51 1.507l1.736 2.429a26.171 26.171 0 0 1 .528.77C5.832 9.328 7.37 14.838 7.2 20.512c-.158 5.303-1.8 10.508-4.703 15.039a31.118 31.118 0 0 1-1.191 1.725L.15 38.837c-.497.669.344 1.51 1.013 1.013L2.72 38.69l.246-.18c.484-.353.977-.69 1.478-1.012 4.53-2.906 9.733-4.547 15.033-4.7 5.668-.165 11.17 1.38 15.787 4.446a26.068 26.068 0 0 1 .773.534l2.423 1.736c.665.476 1.486-.345 1.01-1.01l-1.735-2.428a25.405 25.405 0 0 1-.531-.772Zm-4.474-2.54c-1.88-4.138-2.79-8.7-2.653-13.349a31.988 31.988 0 0 1 2.965-12.483A31.892 31.892 0 0 1 20.58 9.897c-4.644.137-9.202-.775-13.336-2.658 1.88 4.14 2.788 8.705 2.65 13.355a31.99 31.99 0 0 1-2.967 12.474A31.89 31.89 0 0 1 19.4 30.104c4.642-.135 9.198.778 13.33 2.662Z"
        clip-rule="evenodd" opacity=".5" />
    <path fill="currentColor" fill-rule="evenodd"
        d="M37.773 19.26a21.338 21.338 0 0 1-4.993-1.43 20.546 20.546 0 0 1-6.103-3.99 19.486 19.486 0 0 1-4.47-6.352 18.909 18.909 0 0 1-1.264-4.151l-.903-.152h.002l.9.15a19.02 19.02 0 0 1-.05-.292c-.159-.964-1.537-.963-1.696 0a18.78 18.78 0 0 1-.05.291l.893-.149h.001l-.895.15a18.75 18.75 0 0 1-1.266 4.152 19.487 19.487 0 0 1-4.473 6.351 20.546 20.546 0 0 1-6.103 3.985 21.137 21.137 0 0 1-4.98 1.427l-.11.736.109-.736-.213.032c-.812.12-.811 1.298 0 1.418l.212.033-.108-.738v-.001l.108.739h.005a21.349 21.349 0 0 1 4.976 1.429c2.257.96 4.33 2.307 6.106 3.993a19.481 19.481 0 0 1 4.466 6.352 18.939 18.939 0 0 1 1.265 4.161l.9.15-.9-.15.05.292c.16.964 1.537.963 1.696 0l.05-.29a18.771 18.771 0 0 1 1.267-4.162 19.484 19.484 0 0 1 4.47-6.35 20.545 20.545 0 0 1 6.107-3.99 21.123 21.123 0 0 1 4.98-1.427l.008-.002.206-.031c.811-.12.811-1.297 0-1.418a21.87 21.87 0 0 1-.2-.03Zm-9.634.737a24.38 24.38 0 0 0-4.232 3.211 23.72 23.72 0 0 0-3.868 4.753 23.718 23.718 0 0 0-3.865-4.753 24.374 24.374 0 0 0-4.232-3.214 24.372 24.372 0 0 0 4.227-3.206 23.717 23.717 0 0 0 3.873-4.756 23.72 23.72 0 0 0 3.87 4.757 24.375 24.375 0 0 0 4.227 3.208ZM20.041 36.82l.844.14-.844-.14ZM2.214 19.987l-.001.007v-.008.001Zm-.001.006v.001l-.105-.711.017.111.088.6Zm0 .002-.104.705.104-.706Zm17.826-16.81-.843-.141.845.14-.002.001Zm.002 0h.001l.85-.142-.85.142Z"
        clip-rule="evenodd" />
    <path fill="currentColor"
        d="M68.68 5.816v17.688L56.243 5.816h-4.352v28.996h5.72V17.083l12.437 17.73h4.353V5.815H68.68ZM88.158 35.392c6.094 0 10.985-4.763 10.985-10.935 0-6.172-4.891-10.936-10.985-10.936-6.094 0-10.945 4.764-10.945 10.936s4.85 10.935 10.945 10.935Zm0-5.22c-3.15 0-5.597-2.36-5.597-5.715 0-3.356 2.446-5.717 5.597-5.717 3.192 0 5.638 2.361 5.638 5.717 0 3.355-2.446 5.716-5.638 5.716ZM114.491 14.1 109.433 28.6 104.417 14.1h-5.886l7.876 20.711h6.094l7.876-20.711h-5.886ZM136.656 14.1v2.445c-1.493-1.864-3.731-3.024-6.758-3.024-5.513 0-10.073 4.764-10.073 10.936s4.56 10.935 10.073 10.935c3.027 0 5.265-1.16 6.758-3.024v2.444h5.347V14.101h-5.347Zm-5.763 16.197c-3.275 0-5.72-2.36-5.72-5.84s2.445-5.841 5.72-5.841c3.317 0 5.763 2.361 5.763 5.84 0 3.48-2.446 5.841-5.763 5.841Z" />
</svg>