<svg width="256" height="256" viewBox="0 0 256 256" fill="none" xmlns="http://www.w3.org/2000/svg">
<rect width="256" height="256" fill="white"/>
<path d="M26 69.6104C26 45.5251 45.5251 26 69.6105 26H186.39C210.475 26 230 45.5251 230 69.6105V186.39C230 210.475 210.475 230 186.39 230H69.6104C45.5251 230 26 210.475 26 186.39V69.6104Z" fill="url(#paint0_linear_1698_803)"/>
<path fill-rule="evenodd" clip-rule="evenodd" d="M106.012 99.3387H149.988C152.394 99.3387 154.308 97.3909 154.334 95.0017C154.334 92.6124 152.394 90.6647 150.014 90.6647H106.012C103.632 90.6647 101.692 92.6124 101.692 95.0017C101.692 97.3909 103.632 99.3387 106.012 99.3387ZM131.285 119.05C131.285 121.907 133.588 124.218 136.433 124.218C139.253 124.218 141.581 121.907 141.581 119.05C141.581 116.193 139.279 113.882 136.433 113.882C133.588 113.882 131.285 116.193 131.285 119.05ZM114.445 119.05C114.445 121.907 116.747 124.218 119.593 124.218C122.438 124.218 124.741 121.907 124.741 119.05C124.741 116.193 122.438 113.882 119.593 113.882C116.747 113.882 114.445 116.193 114.445 119.05ZM173.942 92.8981C175.158 103.39 170.139 112.817 162.12 117.959C161.241 118.531 161.06 119.621 161.732 120.452C167.604 127.361 171.433 136.087 172.209 145.695C172.312 146.682 171.562 147.513 170.579 147.513H85.421C84.4639 147.513 83.7137 146.656 83.7913 145.695C84.5932 136.087 88.3958 127.361 94.2938 120.452C94.9663 119.647 94.7853 118.557 93.9057 117.985C85.3434 112.506 80.1956 102.169 82.3944 90.8465C84.4897 80.0169 93.0262 71.8882 103.891 70.304C109.168 69.5249 114.186 70.356 118.558 72.3557C124.585 75.1085 131.415 75.1345 137.442 72.3557C141.839 70.33 146.91 69.499 152.213 70.304C163.543 71.9921 172.623 81.4712 173.942 92.8981ZM85.9383 155.304H170.062C171.096 155.304 171.872 156.239 171.691 157.278C167.992 178.132 149.859 194 128 194C106.141 194 88.0078 178.158 84.3086 157.278C84.1276 156.239 84.9036 155.304 85.9383 155.304ZM69.0464 99.1829C60.8203 102.559 55 110.61 55 120.063V123.777C55 133.23 60.8462 141.255 69.0464 144.657C70.1329 145.098 71.3228 144.319 71.3228 143.124V100.715C71.3228 99.5464 70.1329 98.7414 69.0464 99.1829ZM184.677 100.715C184.677 99.5204 185.867 98.7413 186.954 99.1828C195.18 102.585 201 110.61 201 120.063V123.777C201 133.23 195.18 141.28 186.954 144.657C185.867 145.098 184.677 144.293 184.677 143.124V100.715Z" fill="white"/>
<defs>
<linearGradient id="paint0_linear_1698_803" x1="128" y1="26" x2="128" y2="230" gradientUnits="userSpaceOnUse">
<stop stop-color="#743EFF"/>
<stop offset="1" stop-color="#3E0FFB"/>
</linearGradient>
</defs>
</svg>
