<svg version="1.2" xmlns="http://www.w3.org/2000/svg" viewBox="0 0 1577 631" width="1577"
	height="631">
	<title>Thryv_BrandGuide-2-pdf-svg</title>
	<defs>
		<clipPath clipPathUnits="userSpaceOnUse" id="cp1">
			<path d="m-1963.52-1371.68h4319.75v3339.62h-4319.75z" />
		</clipPath>
	</defs>
	<style>
		.s0 { fill: currentColor }
		.s1 { fill: currentColor }
	</style>
	<g id="Clip-Path: Page 1" clip-path="url(#cp1)">
		<g id="Page 1">
			<path id="Path 9" class="s0"
				d="m473.2 517c0-5.5 0.5-139.2-0.3-200.9c-0.3-16.6-3-33.8-7.7-49.6c-6.5-21.6-23.4-34.1-45.5-35.2c-36-1.4-71.7-0.3-109.1-0.3v286h-76.1v-457.1h75.3v110.5c33.8 0 66-0.5 98.2 0.3c20.7 0.8 42 1.9 62.2 6c43.9 8.7 75 42.3 76.9 87.3v253zm115.9 0.2v-215.3c0.2-14.7 1.6-29.7 4.3-44.4c7.9-42.9 34.9-68.8 76.1-80c36-10.1 72.8-6.2 110.2-6.8v57.6c-16.1 0.8-31.9 0.8-47.5 2.4c-39 3.6-58.9 22.7-64.3 61.4c-1.7 12.3-3 24.6-3 36.6c-0.3 61.7 0 166.7 0 188.5zm-397.6-57.3v57.6c-37.7-0.8-74.2 3.3-110.5-6.8c-41.2-11.5-67.9-37.1-75.8-80c-2.7-14.7-4.4-29.7-4.4-44.7c-0.5-67.7-0.2-320.3 0-324.4h75.9c0 1.1 0 51 0 110.5h112.9v58.9h-112.9c-0.3 52.9-0.3 104 0 128.2c0 12.3 1.3 24.6 3 36.6c5.1 39 25.3 58.1 64.3 61.7c15.6 1.3 31.4 1.6 47.5 2.4zm1015.5-289.2h71.5c4.1 0 9.5 6 11.2 10.4c30.2 78.8 98.4 258.4 102 266.3c8.4-16.9 72.2-183.6 102.8-265.8c3.3-8.7 7.3-11.2 16.6-11.2h65.7c-1.3 4.4-88 216.4-130.3 319.3c-8.7 21-22.7 32.4-45.6 31.6q-7.6-0.3-15 0c-24.2 1.1-39-10.9-47.7-32.7c-33.3-81.1-120.3-291.2-131.2-317.9zm-263.4 370.3c9.5-17.8 7.4-31.7-0.5-49.2c-47.2-103.4-93-207.6-139.4-311.3c-1.1-2.4-1.9-4.9-3.3-8.7c25.4 0 49.4-0.5 73.1 0.3c3.6 0.2 7.9 6.3 9.8 10.6c30.8 73.1 61.4 146.3 91.9 219.7c4.7 11.1 9.3 22.1 15 35.2c21-47.5 41.2-93.1 61.4-138.7c17.4-39.2 34.9-78.5 51.8-118.1c3-6.8 6.6-9.5 14.2-9.3c21.8 0.6 43.6 0.3 67.4 0.3c-2.2 5.7-4.1 10.6-6 15.3c-65.2 144.3-130.4 288.4-195 432.7c-3.9 8.5-8.2 11.2-17.2 10.9c-21.3-0.8-42.3-0.2-65.5-0.2c14.2-30.9 26.8-61.2 42.3-89.5z" />
			<path id="Path 10" class="s1"
				d="m391.1 133.1l472.3-38l396.8-31.9c6-0.3 10.6-5.4 10.6-11.4v-39.6c0-8.5 8.8-13.9 16.4-10.7l136.6 62.3l153 69.3z" />
			<path id="Path 11" fill-rule="evenodd" class="s0"
				d="m1491.5 505.8q0-4.1 1.9-7.7q2.2-3.8 6-6q3.5-1.9 7.9-1.9q4.1 0 7.6 1.9q3.8 2.2 5.7 5.8q2.2 3.8 2.2 7.9q0 4.1-1.9 7.9q-2.2 3.5-5.7 5.7q-3.8 2.2-7.9 2.2q-4.4 0-8.2-2.2q-3.5-2.2-5.7-5.7q-1.9-3.6-1.9-7.9zm2.4 0q0 3.5 1.9 6.8q1.7 3 4.7 4.6q3.2 1.9 6.8 1.9q3.5 0 6.5-1.9q3-1.9 4.7-4.9q1.9-3 1.9-6.5q0-3.6-1.9-6.6q-1.7-3-4.7-4.6q-3.3-1.9-6.5-1.9q-3.6 0-6.6 1.6q-3.2 1.9-4.9 4.9q-1.9 3-1.9 6.6zm19.6-3.6q0 3.6-3.2 4.9l4.9 8.2h-4.4l-4.1-7.4h-1.6v7.4h-4.1v-18.8h5.5q3.5 0 5.4 1.4q1.6 1.3 1.6 4.3zm-8.4 2.7h1.4q1.3 0 2.1-0.5q0.9-0.8 0.9-2.2q0-1.6-0.6-2.2q-0.8-0.5-2.4-0.5h-1.4z" />
		</g>
	</g>
</svg>