<?xml version="1.0" encoding="UTF-8"?>
<svg id="Layer_1" xmlns="http://www.w3.org/2000/svg" viewBox="0 0 138.77 140">
    <defs>
        <style>.cls-1{fill:#4a54f5;}</style>
    </defs>
    <g id="Artwork_2">
        <path class="cls-1"
            d="M97.57,.02c-21.35,.62-38.8,19.3-38.8,40.66v6.32h20v-6.76c0-10.45,7.91-19.48,18.34-20.19,12.7-.87,23.08,10.57,20.71,23.72-1.72,9.49-10.24,16.23-19.88,16.23H40.24c-18.2,0-36.34,14.54-39.56,32.46-4.57,25.41,14.53,47.54,38.71,47.54h7.38v-20h-7.04c-10.41,0-19.43-7.77-20.38-18.13-1.08-11.86,8.27-21.87,19.91-21.87h19.5v60h20v-60h19.32c21.37,0,40.04-17.45,40.66-38.8C139.42,18.16,120.61-.66,97.57,.02Z" />
    </g>
</svg>